<?xml version="1.0" encoding="utf-8"?>
<!-- Generator: Adobe Illustrator 20.1.0, SVG Export Plug-In . SVG Version: 6.00 Build 0)  -->
<svg version="1.1" xmlns="http://www.w3.org/2000/svg" xmlns:xlink="http://www.w3.org/1999/xlink" x="0px" y="0px"
	 viewBox="0 0 236 169" style="enable-background:new 0 0 236 169;" xml:space="preserve">
<style type="text/css">
	.st0{opacity:0.46;}
	.st1{fill:#B3B5BC;}
	.st2{display:none;}
	.st3{fill:none;stroke:#050505;stroke-miterlimit:10;}
	.st4{fill:#17E5D1;stroke:#050505;stroke-miterlimit:10;}
	.st5{fill:#F7150F;stroke:#050505;stroke-miterlimit:10;}
	.st6{fill:#3343DB;stroke:#050505;stroke-miterlimit:10;}
	.st7{fill:#EFCF14;stroke:#050505;stroke-miterlimit:10;}
	.st8{fill:#8726ED;stroke:#050505;stroke-miterlimit:10;}
	.st9{fill:#66E81A;stroke:#050505;stroke-miterlimit:10;}
	.st10{fill:#DF0FEA;stroke:#050505;stroke-miterlimit:10;}
	.st11{fill:#EA2F53;stroke:#050505;stroke-miterlimit:10;}
	.st12{fill:#F4ED0F;stroke:#050505;stroke-miterlimit:10;}
	.st13{fill:#5746AA;stroke:#050505;stroke-miterlimit:10;}
	.st14{fill:#40DD1F;stroke:#000222;stroke-width:4;stroke-miterlimit:10;}
	.st15{fill:#EA1145;stroke:#000222;stroke-width:4;stroke-miterlimit:10;}
	.st16{fill:none;stroke:#000222;stroke-width:4;stroke-miterlimit:10;}
	.st17{fill:#000222;stroke:#000222;stroke-width:4;stroke-miterlimit:10;}
	.st18{fill:#DE14F4;}
	.st19{font-family:'ADAM.CGPRO';}
	.st20{font-size:12px;}
	.st21{fill:#1CF40B;}
	.st22{font-family:'Chalkduster';}
</style>
<symbol  id="Comments_2" viewBox="-30.4 -26.7 60.8 52.8">
	<g class="st0">
		<g>
			<path d="M0,26.2c16.6,0,30-10.8,30-24.2c0-5.3-2.1-10.3-5.8-14.3l5.6-13.9L6.2-21.4c-2.5-0.1-5.2-0.7-8-0.7c-0.3,0-0.6,0-0.9,0
				C-18.8-22.2-30-11.2-30,2C-30,15.3-16.6,26.2,0,26.2 M0,19.6c-12.9,0-23.4-7.9-23.4-17.6c0-10,8.9-17.6,20.7-17.6
				c0.3,0,0.5,0,0.8,0c1.1,0,2.3,0.2,3.6,0.3C3-15.1,4.5-14.9,6-14.9l0.7,0L7.5-15l11.7-2.4l-1,2.6l-1.5,3.8l2.8,3
				c1.9,2,4.1,5.4,4.1,9.9C23.4,11.7,12.9,19.6,0,19.6L0,19.6z"/>
			<g>
				<path class="st1" d="M0,26.2c1.2-0.1,2.4,0,3.6-0.1c1.2-0.1,2.4-0.2,3.6-0.5c0.6-0.1,1.2-0.2,1.8-0.4l1.8-0.5l0.9-0.2l0.9-0.3
					l1.7-0.6l1.7-0.8c0.6-0.3,1.1-0.5,1.6-0.8l1.6-0.9l1.5-1.1l0.8-0.5l0.7-0.6c0.5-0.4,0.9-0.8,1.4-1.2c0.8-0.9,1.7-1.8,2.4-2.8
					c0.8-1,1.4-2.1,2-3.1c0.5-1.1,1.1-2.2,1.4-3.4C29.8,7,30,5.7,30.2,4.5c0.1-1.2,0.2-2.5,0.1-3.7c-0.1-2.5-0.8-4.9-1.8-7.2
					c-1-2.3-2.4-4.3-4.1-6.2l0.1,0.4L30.2-26l0.3-0.6l-0.7,0.1L6.1-21.8l0.1,0c-1.9-0.1-3.8-0.4-5.7-0.6c-1-0.1-1.9-0.2-2.9-0.2
					c-1,0-1.9,0.1-2.9,0.1c-1,0.1-1.9,0.2-2.9,0.3c-1,0.1-1.9,0.4-2.9,0.6c-0.9,0.3-1.9,0.6-2.8,0.9c-0.9,0.4-1.8,0.7-2.7,1.2
					c-1.7,0.9-3.4,1.9-4.9,3.2l-1.1,0.9c-0.4,0.3-0.7,0.7-1,1c-0.7,0.7-1.3,1.4-1.9,2.2c-0.3,0.4-0.6,0.8-0.9,1.2l-0.8,1.2
					c-0.4,0.9-0.9,1.7-1.3,2.6c-0.3,0.9-0.8,1.8-1,2.8l-0.4,1.4l-0.2,1.4c-0.2,1-0.2,1.9-0.3,2.9l0,0.4l0,0.2l0,0.2l0,0.7l0.1,1.4
					c0.2,1,0.3,2,0.6,2.9l0.4,1.4l0.2,0.7l0.3,0.7l0.6,1.3c0.2,0.4,0.5,0.8,0.7,1.3c0.3,0.4,0.5,0.8,0.8,1.2l0.9,1.2
					c1.2,1.6,2.6,2.9,4.1,4.2c0.8,0.6,1.6,1.1,2.4,1.7c0.8,0.5,1.7,1,2.5,1.5c0.9,0.4,1.7,0.8,2.6,1.2c0.9,0.3,1.8,0.7,2.7,1
					c0.9,0.2,1.9,0.5,2.8,0.7c0.9,0.2,1.9,0.4,2.8,0.5c1,0.1,1.9,0.2,2.9,0.3L0,26.2L-2.9,26c-1-0.1-1.9-0.3-2.9-0.4
					c-0.9-0.2-1.9-0.4-2.8-0.6c-0.9-0.2-1.8-0.6-2.7-0.8c-0.9-0.3-1.8-0.7-2.7-1.1c-0.9-0.4-1.7-0.9-2.6-1.3c-0.8-0.5-1.6-1-2.4-1.5
					c-0.8-0.6-1.5-1.1-2.3-1.7c-1.4-1.3-2.8-2.6-3.9-4.1l-0.9-1.1c-0.3-0.4-0.5-0.8-0.7-1.2c-0.2-0.4-0.5-0.8-0.7-1.2L-28,9.7
					L-28.3,9l-0.2-0.7L-28.9,7c-0.2-0.9-0.4-1.8-0.5-2.7l-0.1-1.4l0-0.7l0-0.2l0-0.2l0-0.4c0.1-0.9,0.1-1.9,0.3-2.8l0.2-1.4l0.4-1.4
					c0.2-0.9,0.6-1.8,0.9-2.7c0.4-0.9,0.8-1.7,1.3-2.5l0.8-1.2c0.3-0.4,0.5-0.8,0.8-1.2c0.6-0.7,1.2-1.5,1.9-2.1
					c0.3-0.3,0.7-0.7,1-1l1.1-0.9c1.5-1.2,3.1-2.2,4.8-3.1c0.9-0.4,1.7-0.8,2.6-1.1c0.9-0.3,1.8-0.6,2.7-0.8
					c0.9-0.2,1.8-0.4,2.8-0.6c0.9-0.1,1.9-0.3,2.8-0.3c1,0,1.9-0.1,2.9-0.1c1,0,1.9,0.1,2.8,0.2c1.9,0.2,3.8,0.5,5.8,0.6l0,0l0,0
					l23.6-4.7l-0.4-0.5l-5.6,13.9l-0.1,0.2l0.2,0.2c1.6,1.8,3,3.8,3.9,6c1,2.2,1.6,4.5,1.7,6.9c0.1,1.2-0.1,2.4-0.1,3.6
					c-0.2,1.2-0.4,2.4-0.8,3.5c-0.3,1.2-0.9,2.2-1.4,3.3c-0.6,1-1.2,2.1-1.9,3c-0.7,1-1.5,1.8-2.4,2.7c-0.4,0.4-0.9,0.8-1.3,1.2
					L21,18.8l-0.7,0.5l-1.4,1.1l-1.5,1c-0.5,0.3-1,0.6-1.6,0.9l-1.6,0.8l-1.7,0.7l-0.8,0.3l-0.9,0.3L9,24.9
					c-0.6,0.2-1.2,0.3-1.8,0.4c-1.2,0.3-2.4,0.4-3.6,0.6C2.4,26.1,1.2,26.1,0,26.2z"/>
				<path class="st1" d="M0,19.6l-2.3-0.1c-0.7-0.1-1.5-0.2-2.2-0.3c-0.7-0.1-1.5-0.3-2.2-0.5c-0.7-0.2-1.4-0.4-2.2-0.6
					c-0.7-0.2-1.4-0.5-2.1-0.8c-0.7-0.3-1.3-0.7-2-1c-0.6-0.4-1.3-0.7-1.9-1.1c-0.6-0.4-1.2-0.8-1.8-1.3c-0.6-0.5-1.2-0.9-1.7-1.5
					l-0.8-0.8c-0.2-0.3-0.5-0.6-0.7-0.9c-1-1.1-1.7-2.4-2.3-3.8c-0.5-1.4-0.9-2.8-1-4.3l0-0.5l0-0.3l0-0.3l0.1-1.1
					c0-0.8,0.2-1.4,0.3-2.2c0.4-1.4,0.8-2.8,1.6-4.1c0.7-1.3,1.6-2.5,2.6-3.5c0.5-0.5,1-1,1.7-1.5l0.9-0.7l0.9-0.6
					c1.2-0.8,2.6-1.4,4-1.9c0.7-0.2,1.4-0.4,2.1-0.6c0.7-0.1,1.4-0.3,2.2-0.4c1.5-0.2,2.9-0.3,4.4-0.3c1.5,0.1,3,0.3,4.5,0.4
					c1.5,0.1,3,0.3,4.5,0.4l0,0l0,0L19.3-17l-0.4-0.5l-2.6,6.4l-0.1,0.2l0.2,0.2l2,2.2C19-7.8,19.7-7,20.2-6.3
					c1.1,1.6,2,3.3,2.5,5.2c0.2,0.9,0.3,1.9,0.4,2.9c0,0.9-0.1,2-0.3,2.9l-0.1,0.7c-0.1,0.2-0.2,0.5-0.2,0.7
					c-0.2,0.4-0.3,0.9-0.5,1.3l-0.6,1.3l-0.8,1.2c-0.2,0.4-0.6,0.8-0.9,1.1l-0.5,0.6l-0.5,0.5c-0.7,0.7-1.4,1.3-2.2,1.9
					c-0.8,0.6-1.5,1.2-2.4,1.7c-0.4,0.2-0.8,0.5-1.3,0.7l-1.3,0.6c-0.4,0.2-0.9,0.4-1.4,0.6c-0.5,0.2-0.9,0.4-1.4,0.5
					c-0.9,0.3-1.9,0.6-2.8,0.8c-1,0.2-1.9,0.4-2.9,0.5C2,19.6,1,19.5,0,19.6z M0,19.6c1,0,2,0,3-0.1c1-0.1,2-0.2,2.9-0.4
					c1-0.1,1.9-0.4,2.9-0.6c0.5-0.1,0.9-0.3,1.4-0.4c0.5-0.2,1-0.3,1.4-0.5l1.4-0.6c0.5-0.2,0.9-0.5,1.3-0.7
					c0.4-0.2,0.9-0.5,1.3-0.8c0.4-0.3,0.9-0.5,1.3-0.8c0.8-0.6,1.6-1.3,2.2-2l0.5-0.5l0.5-0.6c0.3-0.4,0.7-0.8,0.9-1.2L21.9,9
					l0.7-1.4c0.2-0.4,0.4-1,0.5-1.4c0.1-0.2,0.2-0.5,0.2-0.7l0.2-0.8c0.3-1,0.3-2,0.3-3c0-1-0.1-2-0.4-3c-0.5-2-1.4-3.8-2.6-5.4
					c-0.6-0.8-1.3-1.6-1.9-2.3l-2-2.2l0.1,0.4l2.6-6.4l0.3-0.6l-0.7,0.1L6.7-15.2l0.1,0c-1.5,0-3-0.2-4.5-0.4
					c-1.5-0.1-3-0.3-4.5-0.4c-1.5,0-3,0.1-4.6,0.3c-0.8,0.1-1.5,0.3-2.2,0.4c-0.7,0.2-1.5,0.4-2.2,0.7c-1.4,0.5-2.8,1.2-4.1,2
					l-1,0.6l-0.9,0.7c-0.6,0.4-1.1,1-1.7,1.5c-1.1,1.1-2,2.3-2.8,3.7c-0.8,1.3-1.3,2.8-1.7,4.3c-0.1,0.8-0.3,1.5-0.3,2.3l-0.1,1.1
					l0,0.3l0,0.3l0,0.6c0,1.6,0.5,3.1,1,4.5c0.6,1.4,1.4,2.8,2.4,3.9c0.2,0.3,0.5,0.6,0.7,0.9l0.8,0.8c0.5,0.6,1.1,1,1.7,1.5
					c0.6,0.5,1.3,0.9,1.9,1.3c0.7,0.4,1.3,0.7,2,1.1c0.7,0.3,1.4,0.6,2.1,0.9c0.7,0.2,1.4,0.5,2.2,0.7c0.7,0.2,1.5,0.4,2.2,0.5
					c0.7,0.1,1.5,0.3,2.2,0.4c0.7,0.1,1.5,0.2,2.2,0.2L0,19.6z"/>
			</g>
		</g>
	</g>
</symbol>
<g id="Layer_1" class="st2">
	<image style="display:inline;overflow:visible;" width="236" height="169" xlink:href="crane.jpg" >
	</image>
</g>
<g id="Layer_3">
	<polygon class="st3" points="74,54 88.2,22.8 104.5,22.8 	"/>
	<polygon class="st3" points="108.2,38.4 104.5,22.8 72.5,55.5 100.4,42 	"/>
	<polygon class="st4" points="101.8,163.7 100.6,40.4 108.5,36.8 127.2,116.9 	"/>
	<polygon class="st5" points="129.2,74.5 116.7,74.5 120.4,90.3 	"/>
	<polygon class="st6" points="126,117 127.5,78 120.4,91.5 	"/>
	<polygon class="st7" points="231.8,79 141,130 127,118.5 142.5,75.8 	"/>
	<polygon class="st8" points="133,156.1 141.5,129.6 127.5,118.1 102,164.8 	"/>
	<polygon class="st9" points="161.2,2.2 116,71.5 116.7,74.5 134.8,74.5 	"/>
	<polygon class="st10" points="156.3,76.3 161.2,2.2 134.8,74.5 	"/>
	<polygon class="st11" points="88.9,162.6 102,165.9 100.4,42 92,45.8 	"/>
	<polygon class="st12" points="72.5,121.8 91.1,103.6 89.2,160.8 	"/>
	<polygon class="st13" points="2.8,58.8 91.4,72.2 91.1,103.6 72.5,121.8 	"/>
</g>
<g id="Layer_2">
	<path class="st14" d="M75.4,19.8c-2.5,3.1-2.3,7.8-0.1,11.1c2.3,3.3,6.3,5.1,10.2,5.3c1.1,0.1,2.3,0,3.3-0.5c0.9-0.5,1.6-1.3,2.3-2
		c1.5-1.9,3-3.9,3.5-6.2c0.5-2.4-0.1-5.1-2-6.5c-1-0.7-2.2-1.1-3.4-1.4c-4.8-1.1-9.7-1.5-14.6-1"/>
	<path class="st15" d="M105.3,18.7c-5.1,0.4-8.2,5.7-9.8,10.5c-1.1,3.2-1.6,7.3,1,9.4c1.1,0.8,2.5,1.1,3.8,1.3
		c4.9,0.7,10.1,0.2,14.1-2.6c4-2.9,6.1-8.6,3.9-13c-1.6-3.1-5.1-4.9-8.5-5.5c-3.5-0.5-7,0-10.4,0.6"/>
	<line class="st16" x1="64.8" y1="11.8" x2="75.4" y2="19.8"/>
	<line class="st16" x1="72" y1="5.2" x2="82" y2="18.3"/>
	<line class="st16" x1="89.3" y1="5.7" x2="89.2" y2="19.6"/>
	<line class="st16" x1="102" y1="7" x2="105.3" y2="18.7"/>
	<line class="st16" x1="118" y1="11.7" x2="105.3" y2="18.7"/>
	<line class="st16" x1="131.1" y1="15.2" x2="116.8" y2="24.1"/>
	
		<image style="display:none;overflow:visible;" width="159" height="159" xlink:href="97AFACF751D75953.jpg"  transform="matrix(0.24 0 0 0.24 75.8342 36.5527)">
	</image>
	<path class="st16" d="M82.8,26.2c-0.4,0.7,0.2,1.7,0.9,2s1.7,0.2,2.5,0c0.2-1-0.1-2.1-0.8-2.9c-0.4-0.4-0.9-0.7-1.5-0.7
		c-0.8,0-1.4,0.6-2,1.2c-0.5,0.5-1,1.5-0.4,1.9"/>
	<path class="st17" d="M106,28.2c-1.4,0.1-2.4,1.6-2.1,3c0.3,1.4,1.8,2.3,3.2,2.2c1.8-0.1,3.4-2.1,2.8-3.8c-0.5-1.7-3.3-2.2-4.3-0.7
		"/>
	<g id="Layer_4">
		
			<use xlink:href="#Comments_2"  width="60.8" height="52.8" id="XMLID_1_" x="-30.4" y="-26.7" transform="matrix(0.9149 -0.141 -0.1234 -0.8008 33.125 27.9248)" style="overflow:visible;"/>
		<text transform="matrix(0.9104 0 0 1 22 26.3618)" class="st18 st19 st20">404</text>
		<text transform="matrix(1 0 0 1 15.002 34.7919)" class="st21 st22 st20">error</text>
	</g>
</g>
</svg>
