<svg id="Layer_1" data-name="Layer 1" xmlns="http://www.w3.org/2000/svg" viewBox="0 0 390.37 521.27"><defs><style>.cls-1,.cls-3{fill:none;}.cls-1,.cls-2,.cls-3,.cls-4,.cls-5{stroke:#000;stroke-miterlimit:10;}.cls-1{opacity:0.5;}.cls-1,.cls-4,.cls-5{isolation:isolate;}.cls-2,.cls-4,.cls-5{fill:#fa3939;}.cls-4{opacity:0.76;}.cls-5{opacity:0.68;}</style></defs><title>origami</title><g id="base"><polygon class="cls-1" points="164.48 43.79 177.84 125.84 259.36 212.09 124.29 123.46 164.48 43.79"/><polygon class="cls-1" points="208.47 16.02 177.84 125.84 164.48 43.79 208.47 16.02"/><polygon class="cls-1" points="346.18 98 208.47 16.02 177.84 125.84 346.18 98"/><polygon class="cls-1" points="158.06 56.51 152.24 54.81 158.65 33.01 212.2 0.54 338.06 33.83 303.26 72.45 208.47 16.02 164.48 43.79 158.06 56.51"/><polygon class="cls-1" points="96.75 43.58 158.06 56.51 124.29 123.46 105.45 68.8 96.75 43.58"/><polygon class="cls-1" points="79.88 64.8 96.75 43.58 105.45 68.8 79.88 64.8"/><polygon class="cls-1" points="164.48 43.79 177.84 125.84 259.36 212.09 124.29 123.46 164.48 43.79"/><polygon class="cls-1" points="210.69 120 259.36 212.09 177.84 125.84 210.69 120"/><polygon class="cls-1" points="190.47 166.88 210.9 275.61 261.75 214.12 190.47 166.88"/></g><g id="modifined1"><polygon class="cls-2" points="131.12 340.84 135.78 423.84 207.78 518.18 82.78 415.84 131.12 340.84"/><polygon class="cls-3" points="177.78 317.84 135.78 423.84 131.12 340.84 177.78 317.84"/><polygon class="cls-2" points="387.78 302.68 177.78 317.84 135.78 423.84 387.78 302.68"/><polygon class="cls-4" points="123.4 352.81 117.78 350.51 126.45 329.51 183.12 302.84 308.28 281.18 287.1 309.51 177.78 317.84 131.12 340.84 123.4 352.81"/><polygon class="cls-2" points="63.78 333.51 123.4 352.81 82.78 415.84 69.78 359.51 63.78 333.51"/><polygon class="cls-2" points="2.78 327.68 63.78 333.51 69.78 359.51 2.78 327.68"/><polygon class="cls-2" points="131.12 340.84 135.78 423.84 207.78 518.18 82.78 415.84 131.12 340.84"/><polygon class="cls-5" points="182.67 444.11 207.78 518.18 135.78 423.84 182.67 444.11"/><polygon class="cls-2" points="144.14 466.07 171.78 497.68 207.78 518.18 144.14 466.07"/></g></svg>