<?xml version="1.0" encoding="utf-8"?>
<!-- Generator: Adobe Illustrator 20.1.0, SVG Export Plug-In . SVG Version: 6.00 Build 0)  -->
<svg version="1.1" xmlns="http://www.w3.org/2000/svg" xmlns:xlink="http://www.w3.org/1999/xlink" x="0px" y="0px"
	 viewBox="0 0 740 463.2" style="enable-background:new 0 0 740 463.2;" xml:space="preserve">
<style type="text/css">
	.st0{opacity:0.58;fill:#FA3939;stroke:#000000;stroke-miterlimit:10;}
	.st1{opacity:0.58;fill:none;stroke:#000000;stroke-miterlimit:10;}
	.st2{fill:#FA3939;stroke:#000000;stroke-miterlimit:10;}
	.st3{opacity:0.23;fill:#000222;stroke:#000000;stroke-miterlimit:10;}
	.st4{opacity:0.62;fill:#000222;stroke:#000000;stroke-miterlimit:10;}
	.st5{opacity:0.76;fill:#FA3939;stroke:#000000;stroke-miterlimit:10;}
	.st6{opacity:0.68;fill:#FA3939;stroke:#000000;stroke-miterlimit:10;}
	.st7{opacity:0.58;fill:#000222;stroke:#000000;stroke-miterlimit:10;}
</style>
<g id="Layer_1">
	
		<image style="display:none;overflow:visible;" width="271" height="305" xlink:href="origami.png"  transform="matrix(1 0 0 1 322.9748 5.9283)">
	</image>
	
		<image style="display:none;overflow:visible;" width="236" height="169" xlink:href="../portfolio_wf/crane.jpg"  transform="matrix(1 0 0 1 -3.5252 393.8521)">
	</image>
</g>
<g id="base">
	<polygon class="st0" points="505.5,143.1 513,189.4 559,238 482.8,188 	"/>
	<polygon class="st0" points="530.3,127.4 513,189.4 505.5,143.1 	"/>
	<polygon class="st0" points="614.9,157.2 530.3,127.4 513,189.4 	"/>
	<polygon class="st0" points="501.9,150.3 498.6,149.3 502.2,137 532.3,118.7 608,125.7 591.1,148.8 530.2,127.5 505.5,143.1 	"/>
	<polygon class="st0" points="467.3,143 501.9,150.3 482.8,188 472.2,157.2 	"/>
	<polygon class="st0" points="450.4,146.2 467.3,143 472.2,157.2 	"/>
	<polygon class="st0" points="505.5,143.1 513,189.4 559,238 482.8,188 	"/>
	<polygon class="st0" points="531.8,183.5 559,238 513,189.4 	"/>
	<polygon class="st0" points="520.1,212.5 557.8,273.9 560.4,239.2 	"/>
	<polygon class="st1" points="647.2,352.7 653.5,391.3 691.8,431.8 628.3,390.2 	"/>
	<polygon class="st1" points="667.9,339.7 653.5,391.3 647.2,352.7 	"/>
	<polygon class="st1" points="738.4,364.5 667.9,339.7 653.5,391.3 	"/>
	<polygon class="st1" points="644.2,358.7 641.5,357.9 644.5,347.7 669.5,332.4 732.6,338.2 718.6,357.5 667.8,339.7 647.2,352.7 	
		"/>
	<polygon class="st1" points="615.4,352.6 644.2,358.7 628.3,390.2 619.5,364.5 	"/>
	<polygon class="st1" points="601.4,355.3 615.4,352.6 619.5,364.5 	"/>
	<polygon class="st1" points="647.2,352.7 653.5,391.3 691.8,431.8 628.3,390.2 	"/>
	<polygon class="st1" points="669.1,386.3 691.8,431.8 653.5,391.3 	"/>
	<polygon class="st1" points="659.4,410.6 690.8,461.7 692.9,432.8 	"/>
</g>
<g id="modifined1">
	<polygon class="st2" points="111.6,52.7 115.5,123.1 174.6,201.1 70.6,116.3 	"/>
	<polygon class="st3" points="105,62.9 100.3,62.3 107.9,43.7 157.9,20.1 268.4,0.9 249.7,26 153.2,33.4 111.6,52.7 	"/>
	<polygon class="st2" points="151.1,33.2 115.5,123.1 111.6,52.7 	"/>
	<polygon class="st4" points="339.3,23.4 152.8,35.8 115.5,123.1 	"/>
	<polygon class="st2" points="329.1,20.4 151.1,33.2 115.5,123.1 	"/>
	<polygon class="st5" points="105,62.9 100.8,62.4 107.8,44.5 155.4,21 261.2,0.7 249.7,26 151.2,33.8 111.6,52.7 	"/>
	<polygon class="st2" points="54.5,46.5 105,62.9 70.6,116.3 59.6,68.6 	"/>
	<polygon class="st2" points="2.8,41.6 54.5,46.5 59.6,68.6 	"/>
	<polygon class="st6" points="137.2,112.7 175,200.3 115.5,123.1 	"/>
	<polygon class="st7" points="129,163.8 172.3,230.9 176.6,203.8 	"/>
</g>
</svg>
