<?xml version="1.0" encoding="utf-8"?>
<!-- Generator: Adobe Illustrator 20.1.0, SVG Export Plug-In . SVG Version: 6.00 Build 0)  -->
<svg version="1.1" id="Layer_1" xmlns="http://www.w3.org/2000/svg" xmlns:xlink="http://www.w3.org/1999/xlink" x="0px" y="0px"
	 viewBox="0 0 342.1 232.3" style="enable-background:new 0 0 342.1 232.3;" xml:space="preserve">
<style type="text/css">
	.st0{fill:#FA3939;stroke:#000000;stroke-miterlimit:10;}
	.st1{opacity:0.23;fill:#000222;stroke:#000000;stroke-miterlimit:10;}
	.st2{opacity:0.62;fill:#000222;stroke:#000000;stroke-miterlimit:10;}
	.st3{opacity:0.76;fill:#FA3939;stroke:#000000;stroke-miterlimit:10;}
	.st4{opacity:0.68;fill:#FA3939;stroke:#000000;stroke-miterlimit:10;}
	.st5{opacity:0.58;fill:#000222;stroke:#000000;stroke-miterlimit:10;}
</style>
<polygon class="st0" points="111.6,52.7 115.5,123.1 174.6,201.1 70.6,116.3 "/>
<polygon class="st1" points="105,62.9 100.3,62.3 107.9,43.7 157.9,20.1 268.4,0.9 249.7,26 153.2,33.4 111.6,52.7 "/>
<polygon class="st0" points="151.1,33.2 115.5,123.1 111.6,52.7 "/>
<polygon class="st2" points="339.3,23.4 152.8,35.8 115.5,123.1 "/>
<polygon class="st0" points="329.1,20.4 151.1,33.2 115.5,123.1 "/>
<polygon class="st3" points="105,62.9 100.8,62.4 107.8,44.5 155.4,21 261.2,0.7 249.7,26 151.2,33.8 111.6,52.7 "/>
<polygon class="st0" points="54.5,46.5 105,62.9 70.6,116.3 59.6,68.6 "/>
<polygon class="st0" points="2.8,41.6 54.5,46.5 59.6,68.6 "/>
<polygon class="st4" points="137.2,112.7 175,200.3 115.5,123.1 "/>
<polygon class="st5" points="129,163.8 172.3,230.9 176.6,203.8 "/>
</svg>
