<?xml version="1.0" encoding="utf-8"?>
<!-- Generator: Adobe Illustrator 21.0.0, SVG Export Plug-In . SVG Version: 6.00 Build 0)  -->
<svg version="1.1" id="Layer_1" xmlns="http://www.w3.org/2000/svg" xmlns:xlink="http://www.w3.org/1999/xlink" x="0px" y="0px"
	 viewBox="0 0 882.5 174" style="enable-background:new 0 0 882.5 174;" xml:space="preserve">
<style type="text/css">
	.st0{fill:none;stroke:#000000;stroke-width:30;stroke-miterlimit:10;}
	.st1{fill:none;stroke:#000000;stroke-width:30.2624;stroke-miterlimit:10;}
	.st2{fill:none;stroke:#000000;stroke-width:30.2957;stroke-miterlimit:10;}
	.st3{stroke:#000000;stroke-width:0.75;stroke-miterlimit:10;}
</style>
<path class="st0" d="M154.8,110.2c0.4,22.3,0.6,39.1,0.6,63.7"/>
<path class="st0" d="M154.8,127.9c0-42.1-0.1-119.5-0.1-127.8"/>
<path class="st0" d="M86.5,15C46.7,15.2,14.7,47.7,15,87.5s32.8,71.8,72.5,71.5c38.5-0.3,62.3-39.3,69.8-51.6"/>
<path class="st1" d="M213.9,173.5c0-23.6,0-149.4,0-173"/>
<path class="st1" d="M213.9,102.8c0-5.4,0-10.9,0-16.2c0-39.2,31.9-70.7,71.1-70.7s71.1,31.9,71.1,71.1s-31.9,71.1-71.1,71.1"/>
<path class="st1" d="M411.4,173.5c0-23.6,0-149.4,0-173"/>
<path class="st1" d="M411.4,102.8c0-5.4,0-10.9,0-16.2c0-39.2,31.9-70.7,71.1-70.7s71.1,31.9,71.1,71.1s-31.9,71.1-71.1,71.1"/>
<path class="st0" d="M745.8,110.2c0.4,22.3,0.6,39.1,0.6,63.7"/>
<path class="st0" d="M745.8,127.9c0-42.1-0.1-119.5-0.1-127.8"/>
<path class="st0" d="M677.5,15c-39.8,0.2-71.8,32.7-71.5,72.5s32.8,71.8,72.5,71.5c38.5-0.3,62.3-39.3,69.8-51.6"/>
<path class="st2" d="M882.1,111.5c-25.9-0.7-27.1,25.3-27.1,25.3c-2,21.9-24.9,21.3-24.9,21.3"/>
<path class="st3" d="M801.4,57.5l-6.7-1.3c-0.4-0.1-0.7-0.5-0.6-0.9l4.7-24.4c0.8-4,4.7-6.7,8.7-5.9l6.3,1.2c0.6,0.1,1,0.7,0.9,1.4
	l-4.6,23.9C809.4,55.6,805.5,58.3,801.4,57.5z"/>
</svg>
