<?xml version="1.0" encoding="utf-8"?>
<!-- Generator: Adobe Illustrator 21.0.0, SVG Export Plug-In . SVG Version: 6.00 Build 0)  -->
<svg version="1.1" id="Layer_1" xmlns="http://www.w3.org/2000/svg" xmlns:xlink="http://www.w3.org/1999/xlink" x="0px" y="0px"
	 viewBox="0 0 1366.3 768.4" style="enable-background:new 0 0 1366.3 768.4;" xml:space="preserve">
<style type="text/css">
	.st0{fill:#FCFDF7;}
	.st1{opacity:0;fill:#FCFDF7;}
</style>
<g>
	<path class="st0" d="M0.2,768.2c0-255.9,0-511.9,0-767.9c455.2,0,910.4,0,1365.8,0c0,255.9,0,511.9,0,767.9
		C910.9,768.2,455.6,768.2,0.2,768.2z M700.3,302.1c-0.2-2.4-0.6-3.7-0.4-5c0.8-5.2-1.4-6.6-6.4-6.4c-9.1,0.4-18.3,0.4-27.5,0
		c-5-0.2-6.2,1.7-6.2,6.3c0.2,19.2,0,38.3,0.1,57.5c0,31.8,0.1,63.6,0.1,95.5c0,4.1,1.3,5.6,5.5,5.5c8.8-0.3,17.7-0.1,26.5-0.1
		c7.9,0,7.9,0,7.9-8.1c0-24,0-48,0-72c0-3.3-0.3-6.7,0.3-10c4-22,27-39.6,50.1-34.7c17.7,3.8,31.6,16.1,34.8,35.3
		c3,17.8-3.8,33.9-20.5,43.6c-6.7,3.9-14.7,5.5-22.6,8.3c0,11.7,0,24.3,0,36.9c25.9,1.8,54.9-11.1,72.5-41.1
		c16-27.2,14.5-66.4-8.2-93c-11.1-13-24.5-22.9-41.5-27.2C742.6,288,721.2,290.6,700.3,302.1z M517.2,299.5c-0.1-0.7-0.2-2-0.2-3.3
		c-0.1-6.4-0.1-6.4-6.7-6.4c-8.8,0-17.7,0-26.5,0c-6.7,0-6.7,0-6.7,6.5c0,21.2,0,42.3,0,63.5c0,29.8,0.2,59.6,0.1,89.5
		c0,3.9,1.3,5.3,5.2,5.2c9-0.2,18-0.1,27-0.1c7.6,0,7.6,0,7.6-7.8c0-23.5,0-47,0-70.5c0-3.7-0.5-7.4,0.2-11
		c4.7-25.3,30.3-43,56.7-33.7c16.9,6,30.9,22.4,28.6,45.8c-1.6,16-13.9,32.3-32.8,36.6c-3.5,0.8-7.1,1.3-10.8,2.1
		c0,12-0.1,23.7,0.1,35.3c0,1.1,2.1,3,3.2,3c3.6,0,7.2-0.5,10.8-1.1c27.3-3.8,46.3-19.4,59.6-42.6c8-14,9.9-29.4,8.8-45.5
		c-0.8-12-3.7-23.4-9.8-33.5c-11.4-18.8-27-32.7-48.7-38.7c-12-3.3-24.2-4.8-36.4-1.9C536.8,293.4,527.3,296.6,517.2,299.5z
		 M1008.1,407.1c0-12.7-0.2-25.3,0.1-38c0.2-9.1-2-17.8-5.1-26.1c-7-18.4-19.1-32.5-36-42.6c-8.9-5.3-18.5-8.4-28.7-10.6
		c-15-3.2-29.4-1.5-43.2,3.3c-14.6,5.1-26.9,14.1-37,26.3c-12.1,14.6-18.3,31.5-19.2,50c-0.4,9.1,1.7,18.4,3.7,27.4
		c3.2,14.7,11.8,26.6,22.2,37.1c10.6,10.6,23.5,17.4,37.7,21.5c5.2,1.5,10.7,1.8,16.1,2.2c1.1,0.1,3.4-1.8,3.4-2.9
		c0.3-8.8,0.3-17.6,0.3-26.4c0-2.7-1.1-3.4-3.8-3.9c-6.5-1.3-13.4-2.4-19.2-5.5c-23.4-12.5-33.6-38-24.7-62.7
		c11.3-31.5,41-41.1,68-31.4c20.3,7.3,32.9,25.5,32.9,48.6c0.1,26.8,0.3,53.6,0.2,80.4c0,3.1,0.9,4.1,3.9,4.1
		c7.7-0.1,15.3-0.3,23,0.1c4.6,0.2,5.6-1.6,5.6-5.8C1008,437.1,1008.1,422.1,1008.1,407.1z M450.8,374.2
		C450.8,374.2,450.8,374.2,450.8,374.2c-0.1-24.8-0.2-49.7,0.1-74.5c0.1-5.2-1.7-6.7-6.6-6.4c-6.1,0.3-12.3,0.4-18.5,0
		c-5.1-0.3-6.6,1.5-6.5,6.5c0.2,23.7,0.2,47.3,0,71c0,5.3-0.5,10.7-1.9,15.8c-8.8,33.9-49.2,47.1-76.2,26.7
		c-16.9-12.8-23.5-32.2-17.7-54.2c4.1-15.8,24.3-34.8,43-34.3c1.1,0,3.2-2.3,3.3-3.6c0.3-8,0-16,0.1-24c0-2.8-1.2-4.1-3.9-3.7
		c-5.7,0.7-11.6,0.7-17,2.4c-14.7,4.5-27.8,12.1-38.3,23.6c-9.3,10.3-15.5,22-18.7,35.7c-2.7,11.3-2.7,22.6-1,33.7
		c2,13,8.2,24.7,16.5,35.2c13.9,17.7,32.5,26.8,54.2,29.6c7.7,1,15.8-0.8,23.6-1.4c11.4-0.9,21-6.3,30.4-12.1c2.8-1.7,3.6-1,3.7,1.8
		c0.1,2.5,0.1,5,0,7.5c-0.2,3.3,1,4.8,4.6,4.7c7.2-0.2,14.3-0.3,21.5,0c4.1,0.2,5.4-1.3,5.4-5.4C450.8,423.8,450.8,399,450.8,374.2z
		 M1048.9,255.1c5.1,1.2,7.9-1.1,8.7-6.9c0.7-4.2,2.4-8.3,3.5-12.4c2.8-10.9,2.8-10.8-8.5-10.6c-3.7,0.1-5.8,1.2-6.6,5.1
		c-1.4,6.6-3,13.3-5,19.8c-1.2,3.9-0.1,5.3,3.8,5.1C1046,255.1,1047.1,255.1,1048.9,255.1z"/>
	<path class="st1" d="M700.3,302.1c20.9-11.5,42.3-14.1,64.6-8.5c16.9,4.2,30.4,14.2,41.5,27.2c22.7,26.6,24.1,65.8,8.2,93
		c-17.6,30-46.6,42.9-72.5,41.1c0-12.6,0-25.2,0-36.9c7.9-2.8,15.9-4.4,22.6-8.3c16.7-9.7,23.5-25.8,20.5-43.6
		c-3.2-19.2-17.1-31.6-34.8-35.3c-23.1-4.9-46.2,12.6-50.1,34.7c-0.6,3.2-0.3,6.6-0.3,10c0,24,0,48,0,72c0,8.1,0,8.1-7.9,8.1
		c-8.8,0-17.7-0.2-26.5,0.1c-4.2,0.1-5.5-1.5-5.5-5.5c0-31.8-0.1-63.6-0.1-95.5c0-19.2,0.1-38.3-0.1-57.5c0-4.6,1.2-6.6,6.2-6.3
		c9.1,0.4,18.3,0.4,27.5,0c5-0.2,7.2,1.2,6.4,6.4C699.7,298.4,700.1,299.8,700.3,302.1z"/>
	<path class="st1" d="M517.2,299.5c10.1-3,19.6-6.2,29.4-8.5c12.2-2.9,24.4-1.4,36.4,1.9c21.7,6,37.3,19.9,48.7,38.7
		c6.2,10.1,9,21.5,9.8,33.5c1,16-0.8,31.5-8.8,45.5c-13.3,23.2-32.4,38.7-59.6,42.6c-3.6,0.5-7.2,1.1-10.8,1.1c-1.1,0-3.1-1.9-3.2-3
		c-0.2-11.6-0.1-23.3-0.1-35.3c3.8-0.7,7.3-1.3,10.8-2.1c18.9-4.3,31.2-20.5,32.8-36.6c2.3-23.4-11.7-39.9-28.6-45.8
		c-26.4-9.3-52,8.4-56.7,33.7c-0.7,3.5-0.2,7.3-0.2,11c0,23.5,0,47,0,70.5c0,7.8-0.1,7.8-7.6,7.8c-9,0-18-0.2-27,0.1
		c-4,0.1-5.2-1.3-5.2-5.2c0-29.8-0.1-59.6-0.1-89.5c0-21.2,0-42.3,0-63.5c0-6.5,0-6.5,6.7-6.5c8.8,0,17.7,0,26.5,0
		c6.6,0,6.6,0,6.7,6.4C517,297.6,517.1,298.9,517.2,299.5z"/>
	<path class="st1" d="M1008.1,407.1c0,15-0.1,30,0.1,45c0.1,4.2-1,6-5.6,5.8c-7.7-0.4-15.3-0.2-23-0.1c-3,0-3.9-1-3.9-4.1
		c0-26.8-0.2-53.6-0.2-80.4c-0.1-23.1-12.6-41.3-32.9-48.6c-27-9.7-56.7,0-68,31.4c-8.9,24.8,1.4,50.2,24.7,62.7
		c5.7,3.1,12.7,4.1,19.2,5.5c2.7,0.6,3.9,1.3,3.8,3.9c-0.1,8.8,0,17.6-0.3,26.4c0,1.1-2.3,3-3.4,2.9c-5.4-0.4-10.9-0.7-16.1-2.2
		c-14.3-4.1-27.2-10.8-37.7-21.5c-10.4-10.5-19-22.4-22.2-37.1c-2-9-4.1-18.4-3.7-27.4c0.9-18.5,7.1-35.3,19.2-50
		c10.1-12.2,22.4-21.2,37-26.3c13.8-4.8,28.2-6.5,43.2-3.3c10.2,2.2,19.8,5.3,28.7,10.6c16.9,10.1,29.1,24.2,36,42.6
		c3.2,8.3,5.3,17,5.1,26.1C1008,381.8,1008.1,394.5,1008.1,407.1z"/>
	<path class="st1" d="M450.8,374.2c0,24.8-0.1,49.7,0.1,74.5c0,4.1-1.3,5.6-5.4,5.4c-7.2-0.3-14.3-0.2-21.5,0
		c-3.6,0.1-4.8-1.3-4.6-4.7c0.1-2.5,0.1-5,0-7.5c-0.1-2.8-0.9-3.5-3.7-1.8c-9.4,5.8-19.1,11.1-30.4,12.1c-7.9,0.7-16,2.4-23.6,1.4
		c-21.7-2.8-40.3-11.9-54.2-29.6c-8.3-10.5-14.5-22.1-16.5-35.2c-1.7-11.1-1.7-22.4,1-33.7c3.2-13.6,9.4-25.4,18.7-35.7
		c10.4-11.6,23.5-19.1,38.3-23.6c5.4-1.6,11.3-1.7,17-2.4c2.7-0.3,4,0.9,3.9,3.7c-0.1,8,0.2,16-0.1,24c0,1.3-2.2,3.6-3.3,3.6
		c-18.7-0.5-38.8,18.5-43,34.3c-5.8,22,0.8,41.5,17.7,54.2c27,20.4,67.4,7.1,76.2-26.7c1.3-5.1,1.8-10.5,1.9-15.8
		c0.2-23.7,0.2-47.3,0-71c0-5,1.4-6.8,6.5-6.5c6.1,0.4,12.3,0.3,18.5,0c4.9-0.3,6.7,1.3,6.6,6.4
		C450.6,324.5,450.8,349.3,450.8,374.2C450.8,374.2,450.8,374.2,450.8,374.2z"/>
	<path class="st0" d="M1048.9,255.1c-1.8,0-3,0-4.1,0c-3.9,0.2-5-1.2-3.8-5.1c2-6.5,3.6-13.1,5-19.8c0.8-3.9,2.9-5,6.6-5.1
		c11.3-0.2,11.3-0.3,8.5,10.6c-1.1,4.2-2.8,8.2-3.5,12.4C1056.8,254,1054,256.3,1048.9,255.1z"/>
</g>
</svg>
