<?xml version="1.0" encoding="utf-8"?>
<!-- Generator: Adobe Illustrator 21.0.2, SVG Export Plug-In . SVG Version: 6.00 Build 0)  -->
<svg version="1.1" id="Layer_1" xmlns="http://www.w3.org/2000/svg" xmlns:xlink="http://www.w3.org/1999/xlink" x="0px" y="0px"
	 viewBox="0 0 1201 799" style="enable-background:new 0 0 1201 799;" xml:space="preserve">
<style type="text/css">
	.st0{clip-path:url(#SVGID_2_);fill:#FDDA16;}
	.st1{clip-path:url(#SVGID_2_);fill:#E6E6E6;}
	.st2{clip-path:url(#SVGID_2_);fill:#F5EFE8;}
	.st3{clip-path:url(#SVGID_2_);fill:#8EA5EB;}
	.st4{clip-path:url(#SVGID_2_);fill:#F6378F;}
	.st5{clip-path:url(#SVGID_2_);}
	.st6{fill:#8EA5EB;}
	.st7{fill:#F6378F;}
</style>
<g>
	<defs>
		<rect id="SVGID_1_" x="1.5" y="1.5" width="1198.2" height="794.4"/>
	</defs>
	<clipPath id="SVGID_2_">
		<use xlink:href="#SVGID_1_"  style="overflow:visible;"/>
	</clipPath>
	<rect x="1.5" y="1.5" class="st0" width="1200" height="798"/>
	
		<rect x="881.2" y="37.7" transform="matrix(0.9993 -3.663092e-02 3.663092e-02 0.9993 -4.4216 34.0556)" class="st1" width="92" height="200"/>
	<polygon class="st2" points="952,560.7 1341.3,445 1397,507 1007.7,622.7 	"/>
	<rect x="673" y="753" class="st3" width="7" height="10"/>
	<polygon class="st2" points="703.1,561.8 294.4,452.4 332.4,385.5 741.1,494.9 	"/>
	<rect x="354.1" y="-35.4" class="st1" width="28.5" height="108.7"/>
	<polygon class="st3" points="260.4,374 199.2,381.3 251.8,10.6 312.8,3.3 	"/>
	<polygon class="st4" points="226.9,660.1 26.7,214 95.6,180.7 295.9,626.9 	"/>
	
		<rect x="674.5" y="-114.6" transform="matrix(0.135 -0.9908 0.9908 0.135 565.0452 696.6445)" class="st4" width="14" height="278.7"/>
	
		<rect x="356.1" y="394.8" transform="matrix(0.9985 -5.469795e-02 5.469795e-02 0.9985 -23.0756 27.7876)" class="st3" width="280" height="81.3"/>
	<polygon class="st3" points="926.2,811.6 795.8,741 873.6,434.2 1004,504.8 	"/>
	<polygon class="st3" points="958,474.8 981.6,498.4 1163.2,255.6 1139.5,232 	"/>
	<g class="st5">
		<g>
			
				<rect x="-101.5" y="452.6" transform="matrix(0.287 -0.9579 0.9579 0.287 -482.6714 501.4891)" class="st6" width="394.2" height="244.8"/>
		</g>
		<polygon class="st7" points="519.6,741.7 972.7,850.5 993.8,825.4 540.8,716.7 		"/>
	</g>
	<polygon class="st4" points="811.7,144.8 812,140.2 905.9,130.6 905.5,135.1 	"/>
	<polygon class="st3" points="-1.6,238.3 5.2,246 58.3,167.6 51.5,159.9 	"/>
	<polygon class="st4" points="1049.4,735.8 1251.6,835.4 1251,770.4 1048.8,670.8 	"/>
	<polygon class="st3" points="240.7,798.2 243.4,808.1 326,761.8 323.3,751.8 	"/>
	<polygon class="st3" points="461.4,729 465.1,724.1 411.2,704.4 407.6,709.4 	"/>
	<polygon class="st4" points="108.7,36.5 105.8,27.9 279.8,-6.9 282.7,1.8 	"/>
	
		<rect x="1066" y="-103.8" transform="matrix(0.8476 -0.5307 0.5307 0.8476 107.8855 639.3589)" class="st3" width="201.9" height="471.4"/>
	<polygon class="st4" points="673.8,722.2 671,720.4 684.7,650.2 687.6,652 	"/>
	<polygon class="st4" points="337.6,382.2 201.3,166.4 255.3,197 391.5,412.8 	"/>
	
		<rect x="554.5" y="142.3" transform="matrix(0.135 -0.9908 0.9908 0.135 206.5913 800.0308)" class="st4" width="14" height="278.7"/>
</g>
</svg>
