<?xml version="1.0" encoding="utf-8"?>
<!-- Generator: Adobe Illustrator 21.0.2, SVG Export Plug-In . SVG Version: 6.00 Build 0)  -->
<svg version="1.1" id="Layer_1" xmlns="http://www.w3.org/2000/svg" xmlns:xlink="http://www.w3.org/1999/xlink" x="0px" y="0px"
	 viewBox="0 0 414 799" style="enable-background:new 0 0 414 799;" xml:space="preserve">
<style type="text/css">
	.st0{fill:#FDDA16;}
	.st1{fill:#8EA5EB;}
	.st2{fill:#F6378F;}
	.st3{fill:none;}
</style>
<rect x="-3.4" y="1.7" class="st0" width="415.3" height="798"/>
<polyline class="st1" points="-3.5,362.2 148.5,453.2 -5,800.7 "/>
<polygon class="st2" points="-1.5,441.2 410.5,512.2 413.5,411.2 166.5,266.2 "/>
<polygon class="st1" points="291.2,797.4 293.9,807.3 376.5,761 373.8,751 "/>
<polygon class="st1" points="117.9,795.2 121.6,790.3 67.7,770.6 64.1,775.6 "/>
<rect x="72.9" y="83.4" transform="matrix(0.2343 -0.9722 0.9722 0.2343 57.0137 441.1766)" class="st1" width="471.4" height="201.9"/>
<polygon class="st2" points="242.8,753.1 240.3,750.9 264.7,683.7 267.3,685.9 "/>
<polygon class="st2" points="236.2,103.7 -8.4,263 55.8,341 337.2,287.7 "/>
<rect x="-1.6" y="1.7" class="st3" width="413.5" height="798"/>
</svg>
